HIERARCHY
ROOT hip
{
  OFFSET 0 0 0
  CHANNELS 6 Xposition Yposition Zposition Yrotation Xrotation Zrotation
  JOINT chest
  {
    OFFSET 0 0 0
    CHANNELS 6 Xposition Yposition Zposition Yrotation Xrotation Zrotation
    JOINT head
    {
      OFFSET 0 0 0
      CHANNELS 6 Xposition Yposition Zposition Yrotation Xrotation Zrotation
      EndSite
      {
        OFFSET 0 0 0
      }
    }

    JOINT lHand
    {
      OFFSET 0 0 0
      CHANNELS 6 Xposition Yposition Zposition Yrotation Xrotation Zrotation
      EndSite
      {
        OFFSET 0 0 0
      }
    }



    JOINT rHand
    {
      OFFSET 0 0 0
      CHANNELS 6 Xposition Yposition Zposition Yrotation Xrotation Zrotation
      EndSite
      {
        OFFSET 0 0 0
      }
    }



  }


  JOINT lFoot
  {
    OFFSET 0 0 0
    CHANNELS 6 Xposition Yposition Zposition Yrotation Xrotation Zrotation
    EndSite
    {
      OFFSET 0 0 0
    }
  }


  JOINT rFoot
  {
    OFFSET 0 0 0
    CHANNELS 6 Xposition Yposition Zposition Yrotation Xrotation Zrotation
    EndSite
    {
      OFFSET 0 0 0
    }
  }


}

MOTION
Frames: 26
Frame Time: 0.1
-10.758830 108.455900 54.390230 -11.930690 1.195414 -353.628800 -6.291514 113.099900 39.945410 -359.630200 358.634700 -332.807200 -3.455484 147.092200 50.814650 -0.000007 14.153730 -345.035800 28.042330 118.032500 57.194780 -135.963800 291.536200 -322.864700 -33.831070 121.874200 42.507830 -265.139000 328.147100 -51.299440 12.007570 49.054630 14.098160 -268.506300 87.466260 -280.960800 -28.439190 45.113130 44.028200 -122.077400 68.988110 -115.059600 
-10.477020 108.164700 54.828780 -11.600070 0.124441 -352.692800 -6.190700 112.922400 40.298320 -359.274400 358.486700 -333.357900 -3.498193 147.025500 51.242060 -359.565200 16.091380 -345.339600 27.863120 118.098300 58.724930 -131.658000 294.105800 -326.820400 -33.195600 121.180200 44.690730 -265.072300 328.247300 -50.056630 12.187780 49.659740 14.529560 -238.456300 87.988800 -250.933100 -28.437060 44.852830 43.960560 -127.195700 69.533470 -119.620700 
-9.895734 107.808600 55.217000 -11.127970 358.694800 -352.070800 -5.988304 112.802500 40.728960 -358.823800 358.308100 -334.426700 -3.509197 146.844500 51.794020 -359.031700 18.546170 -345.894000 27.687790 117.964900 60.681160 -127.185600 297.488600 -330.840200 -32.397110 120.293600 47.433290 -265.020800 328.318800 -48.433180 12.497030 49.902720 15.342760 -205.750600 88.116430 -218.242200 -28.458930 44.581270 43.857120 -133.461600 70.132510 -125.208200 
-9.059042 107.386500 55.561360 -10.533300 356.960700 -351.734300 -5.699615 112.733700 41.223270 -358.290800 358.112700 -335.939100 -3.492635 146.566100 52.449200 -358.434400 21.443590 -346.657800 27.517310 117.660000 62.989900 -122.981100 301.631700 -334.497400 -31.464160 119.247500 50.637410 -264.983400 328.364800 -46.490700 12.915470 49.829850 16.479880 -176.178300 87.953300 -188.678000 -28.501410 44.302270 43.723530 -140.858000 70.655130 -131.826100 
-8.011012 106.897200 55.868320 -9.830717 354.978300 -351.656600 -5.339914 112.709200 41.767210 -357.688500 357.914500 -337.820400 -3.452647 146.206800 53.186270 -357.808800 24.704210 -347.593300 27.352660 117.211300 65.577630 -119.239200 306.437000 -337.605300 -30.425320 118.075400 54.205040 -264.959000 328.388500 -44.291710 13.423240 49.487390 17.883010 -151.972400 87.587680 -164.474700 -28.561100 44.019630 43.565470 -149.232800 70.971880 -139.343300 
-6.795720 106.339700 56.144340 -9.032832 352.805300 -351.810800 -4.924490 112.722400 42.346740 -357.031500 357.726400 -339.994100 -3.393371 145.783800 53.983920 -357.190100 28.241900 -348.665800 27.194820 116.646600 68.370800 -116.000000 311.768900 -340.132700 -29.309150 116.810400 58.038110 -264.946700 328.393400 -41.900120 14.000470 48.921650 19.494250 -132.829900 87.060420 -145.329900 -28.634620 43.737190 43.388590 -158.249600 70.973100 -147.444900 
-5.457235 105.712700 56.395900 -8.152235 350.501000 -352.169000 -4.468626 112.766600 42.947820 -356.335800 357.559700 -342.381800 -3.318946 145.313600 54.820800 -356.611000 31.963550 -349.844500 27.044750 115.993600 71.295880 -113.227900 317.463900 -342.125700 -28.144220 115.485800 62.038540 -264.945800 328.383100 -39.381260 14.627300 48.178870 21.255710 -117.924700 86.393970 -130.418500 -28.718570 43.458760 43.198550 -167.415300 70.593100 -155.659300 
-4.039623 105.015100 56.629480 -7.203363 348.125400 -352.701100 -3.987604 112.835100 43.556420 -355.619600 357.422800 -344.903400 -3.233511 144.813200 55.675610 -356.100900 35.770220 -351.101000 26.903440 115.280100 74.279360 -110.861600 323.340800 -343.659000 -26.959080 114.134900 66.108310 -264.955100 328.361200 -36.801670 15.283870 47.305350 23.109500 -106.415700 85.614340 -118.900300 -28.809580 43.188140 43.001020 -176.198700 69.826600 -163.477400 
-2.586965 104.245800 56.851510 -6.204248 345.738800 -353.373600 -3.496712 112.921100 44.158460 -354.901900 357.320800 -347.476900 -3.141205 144.299200 56.526980 -355.684400 39.559240 -352.408800 26.771850 114.533800 77.247630 -108.839100 329.210800 -344.810700 -25.782300 112.791000 70.149260 -264.973200 328.331300 -34.228680 15.950310 46.347350 24.997700 -97.553610 84.754540 -110.026500 -28.904240 42.929160 42.801650 -184.176000 68.726990 -170.497500 
-1.143329 103.403500 57.068470 -5.178032 343.400500 -354.148400 -3.011236 113.018100 44.739920 -354.202700 357.255300 -350.019900 -3.046169 143.788500 57.353610 -355.379600 43.227140 -353.741000 26.650980 113.782300 80.127180 -107.109100 334.888000 -345.652700 -24.642460 111.487300 74.063380 -264.998200 328.296700 -31.729710 16.606770 45.351170 26.862420 -90.730480 83.852320 -103.190500 -28.999170 42.685630 42.606090 -191.108200 67.388450 -176.503100 
0.247214 102.487300 57.286830 -4.154210 341.167800 -354.981700 -2.546458 113.119300 45.286760 -353.542200 357.223900 -352.450200 -2.952539 143.298000 58.134160 -355.195700 46.672540 -355.067000 26.541780 113.053500 82.844480 -105.633500 340.198200 -346.248100 -23.568100 110.257200 77.752590 -265.027700 328.260400 -29.371750 17.233380 44.363070 28.645770 -85.488860 82.948540 -97.935350 -29.090980 42.461360 42.420020 -196.925200 65.923610 -181.446700 
1.540594 101.495800 57.513080 -3.169434 339.095100 -355.823300 -2.117664 113.218100 45.784930 -352.940000 357.221100 -354.686600 -2.864456 142.844300 58.847310 -355.130200 49.798480 -356.349400 26.445240 112.375100 85.325990 -104.388100 344.985100 -346.651100 -22.587790 109.133800 81.118800 -265.059000 328.225500 -27.220820 17.810280 43.429330 30.289840 -81.501770 82.084480 -93.935120 -29.176270 42.260180 42.249100 -201.662600 64.446340 -185.387000 
2.692744 100.428000 57.753640 -2.267664 337.233600 -356.616500 -1.740138 113.307700 46.220390 -352.414600 357.238500 -356.649600 -2.786057 142.444400 59.471720 -355.166000 52.513830 -357.539000 26.362330 111.774800 87.498160 -103.360900 349.112500 -346.908500 -21.730090 108.150400 84.063980 -265.089100 328.194500 -25.341660 18.317610 42.596230 31.736740 -78.547200 81.302020 -90.968580 -29.251670 42.085890 42.098980 -205.399400 63.062340 -188.425900 
3.659583 99.282820 58.015020 -1.499518 335.630800 -357.298700 -1.429167 113.381500 46.579100 -351.983800 357.266300 -358.261800 -2.721484 142.114900 59.986070 -355.269600 54.733350 -358.572200 26.294030 111.280300 89.287450 -102.550700 352.461700 -347.060200 -21.023580 107.340400 86.490030 -265.114700 328.169600 -23.797820 18.735500 41.910040 32.928570 -76.487670 80.642230 -88.899190 -29.313770 41.942320 41.975320 -208.216100 61.865630 -190.666700 
4.397044 98.058970 58.303650 -0.920575 334.331900 -357.803000 -1.200035 113.432800 46.847010 -351.664100 357.293900 -359.447100 -2.674874 141.872800 60.369030 -355.392400 56.376510 -359.370800 26.241310 110.919400 90.620330 -101.965600 354.926100 -347.139200 -20.496810 106.737000 88.298880 -265.132400 328.153100 -22.651810 19.044100 41.417050 33.807430 -75.258770 80.144360 -87.663400 -29.359180 41.833270 41.883780 -210.171100 60.938240 -192.191000 
4.861056 96.755350 58.626030 -0.588596 333.381300 -358.060600 -1.068026 113.455000 47.010080 -351.471500 357.311300 -0.129975 -2.650366 141.734800 60.599270 -355.478500 57.364650 -359.847700 26.205150 110.719800 91.423250 -101.621700 356.402700 -347.170600 -20.178340 106.373500 89.392470 -265.139100 328.147100 -21.965810 19.223540 41.163520 34.315420 -74.868090 79.845100 -87.269710 -29.384530 41.762570 41.830030 -211.287500 60.350840 -193.044800 
5.158968 95.370270 58.975520 -0.414420 332.634900 -358.164400 -0.995817 113.459900 47.107740 -351.357800 357.320600 -0.504443 -2.639236 141.660700 60.734530 -355.527400 57.948430 -0.114739 26.179750 110.618700 91.896420 -101.423100 357.273700 -347.181500 -19.989600 106.159200 90.040600 -265.139100 328.147100 -21.564900 19.323290 41.054430 34.594900 -74.914410 79.671090 -87.315290 -29.397590 41.716250 41.799640 -211.920200 59.984300 -193.519800 
5.428709 93.906150 59.340520 -0.269905 331.917700 -358.252500 -0.935391 113.464000 47.189460 -351.262600 357.328900 -0.817539 -2.629922 141.598800 60.847720 -355.572800 58.435830 -0.341794 26.158500 110.534100 92.292380 -101.257900 357.999300 -347.188400 -19.831670 105.979900 90.582970 -265.139100 328.147100 -21.229700 19.406770 40.963150 34.828780 -74.952000 79.525440 -87.352260 -29.408530 41.677490 41.774210 -212.439000 59.676020 -193.906700 
5.672073 92.368040 59.720060 -0.153684 331.227400 -358.325200 -0.885998 113.467400 47.256270 -351.185000 357.336000 -1.073288 -2.622309 141.548100 60.940240 -355.613200 58.833440 -0.529977 26.141130 110.465000 92.616040 -101.123500 358.590200 -347.192400 -19.702570 105.833300 91.026310 -265.139100 328.147100 -20.955890 19.475000 40.888530 35.019950 -74.981950 79.406360 -87.381710 -29.417470 41.645810 41.753430 -212.856000 59.422980 -194.215900 
5.890862 90.760990 60.113130 -0.064322 330.562000 -358.382800 -0.846884 113.470000 47.309170 -351.123600 357.341900 -1.275692 -2.616281 141.508000 61.013520 -355.647200 59.147770 -0.680706 26.127370 110.410200 92.872350 -101.017400 359.056700 -347.194500 -19.600340 105.717300 91.377380 -265.139100 328.147100 -20.739200 19.529040 40.829440 35.171340 -75.005240 79.312090 -87.404620 -29.424550 41.620720 41.736970 -213.181900 59.222000 -194.456300 
6.086873 89.090030 60.518750 -0.000323 329.919600 -358.426000 -0.817299 113.472000 47.349190 -351.077100 357.346600 -1.428721 -2.611720 141.477700 61.068940 -355.674200 59.385260 -0.795756 26.116970 110.368800 93.066220 -100.937400 359.408600 -347.195600 -19.523010 105.629500 91.642940 -265.139000 328.147100 -20.575370 19.569910 40.784750 35.285850 -75.022530 79.240860 -87.421590 -29.429910 41.601750 41.724520 -213.425800 59.069620 -194.635600 
6.261904 87.360210 60.935920 -359.960100 329.298200 -358.455300 -0.796488 113.473500 47.377330 -351.044500 357.349900 -1.536324 -2.608513 141.456300 61.107910 -355.693800 59.552120 -0.877228 26.109640 110.339700 93.202580 -100.881300 359.655800 -347.196100 -19.468620 105.567700 91.829720 -265.139100 328.147100 -20.460170 19.598660 40.753310 35.366390 -75.034580 79.190720 -87.433430 -29.433670 41.588390 41.715760 -213.596100 58.962260 -194.760500 
6.417755 85.576590 61.363670 -359.942100 328.695900 -358.471400 -0.783701 113.474300 47.394630 -351.024400 357.352000 -1.602426 -2.606542 141.443200 61.131870 -355.706200 59.654590 -0.927518 26.105150 110.321800 93.286390 -100.846800 359.807400 -347.196200 -19.435200 105.529800 91.944510 -265.139100 328.147100 -20.389400 19.616320 40.734000 35.415890 -75.041920 79.159970 -87.440640 -29.435990 41.580200 41.710380 -213.700300 58.896200 -194.836700 
6.556221 83.744190 61.800980 -359.944600 328.110700 -358.475000 -0.778185 113.474700 47.402090 -351.015800 357.352800 -1.630937 -2.605692 141.437500 61.142200 -355.711600 59.698790 -0.949266 26.103210 110.314000 93.322530 -100.831900 359.872800 -347.196300 -19.420780 105.513400 91.994020 -265.139100 328.147100 -20.358880 19.623940 40.725660 35.437240 -75.045080 79.146670 -87.443750 -29.436990 41.576660 41.708060 -213.745100 58.867710 -194.869400 
6.679103 81.868070 62.246880 -359.965800 327.540900 -358.467100 -0.779188 113.474600 47.400730 -351.017400 357.352700 -1.625753 -2.605846 141.438600 61.140320 -355.710600 59.690730 -0.945310 26.103560 110.315500 93.315960 -100.834600 359.860900 -347.196300 -19.423400 105.516400 91.985020 -265.139100 328.147100 -20.364430 19.622550 40.727180 35.433360 -75.044530 79.149020 -87.443210 -29.436810 41.577300 41.708480 -213.736900 58.872870 -194.863500 
6.788197 79.953270 62.700370 -0.004039 326.984600 -358.448500 -0.785958 113.474200 47.391570 -351.028000 357.351600 -1.590762 -2.606890 141.445500 61.127640 -355.704000 59.636500 -0.918631 26.105940 110.324900 93.271600 -100.852900 359.780700 -347.196200 -19.441100 105.536500 91.924250 -265.139100 328.147100 -20.401890 19.613200 40.737400 35.407150 -75.040650 79.165380 -87.439380 -29.435580 41.581640 41.711330 -213.681900 58.907860 -194.823300 
